<?xml version="1.0" encoding="utf-8"?>
<!-- Generator: Adobe Illustrator 16.0.0, SVG Export Plug-In . SVG Version: 6.00 Build 0)  -->
<!DOCTYPE svg PUBLIC "-//W3C//DTD SVG 1.1//EN" "http://www.w3.org/Graphics/SVG/1.1/DTD/svg11.dtd">
<svg version="1.1" id="Capa_1" xmlns="http://www.w3.org/2000/svg" xmlns:xlink="http://www.w3.org/1999/xlink" x="0px" y="0px"
	 width="512px" height="512px" viewBox="0 0 512 512" enable-background="new 0 0 512 512" xml:space="preserve">
<circle display="none" fill="#FFFFFF" stroke="#000000" stroke-miterlimit="10" cx="260.5" cy="275.5" r="175.5"/>
<path fill="#FFFFFF" d="M310.249,19.17c1.904,9.688,2.909,19.64,2.909,29.798c0,97.102-90.587,175.82-202.333,175.82
	c-32.002,0-62.263-6.468-89.164-17.964c-4.198,18.102-6.42,36.96-6.42,56.337c0,137.175,111.203,248.379,248.38,248.379
	S512,400.336,512,263.161C512,141.925,425.134,40.995,310.249,19.17z"/>
<path fill="none" stroke="#1FA1D0" stroke-width="40" stroke-miterlimit="10" d="M-22.396,482.5"/>
<path fill="#1FA1D0" stroke="#1FA1D0" stroke-width="40" stroke-miterlimit="10" d="M52.917,156.413"/>
<text transform="matrix(1 0 0 1 92.5313 402.8203)"><tspan x="0" y="0" fill="#1FA1D0" font-family="'Aldrich'" font-size="209.3085">IC</tspan><tspan x="213.499" y="0" fill="#1FA1D0" font-family="'Aldrich'" font-size="267.9148">P</tspan></text>
<line fill="none" stroke="#FFFFFF" stroke-width="40" stroke-linecap="round" stroke-miterlimit="10" x1="51.138" y1="173.976" x2="150.512" y2="173.976"/>
<line fill="none" stroke="#FFFFFF" stroke-width="40" stroke-linecap="round" stroke-miterlimit="10" x1="99" y1="111" x2="242.343" y2="111"/>
<line fill="none" stroke="#FFFFFF" stroke-width="40" stroke-linecap="round" stroke-miterlimit="10" x1="168.958" y1="39.981" x2="272.89" y2="39.981"/>
</svg>
