<?xml version="1.0" encoding="utf-8"?>
<!-- Generator: Adobe Illustrator 16.0.0, SVG Export Plug-In . SVG Version: 6.00 Build 0)  -->
<!DOCTYPE svg PUBLIC "-//W3C//DTD SVG 1.1//EN" "http://www.w3.org/Graphics/SVG/1.1/DTD/svg11.dtd">
<svg version="1.1" id="Capa_1" xmlns="http://www.w3.org/2000/svg" xmlns:xlink="http://www.w3.org/1999/xlink" x="0px" y="0px"
	 width="512px" height="512px" viewBox="0 0 512 512" enable-background="new 0 0 512 512" xml:space="preserve">
<circle display="none" fill="#FFFFFF" stroke="#000000" stroke-miterlimit="10" cx="260.5" cy="275.5" r="175.5"/>
<path fill="#1FA1D0" d="M282.916,129.646C284.28,136.587,285,143.72,285,151c0,69.588-64.918,126-145,126
	c-22.935,0-44.621-4.635-63.899-12.873C73.092,277.1,71.5,290.613,71.5,304.5c0,98.307,79.693,178,178,178s178-79.693,178-178
	C427.5,217.617,365.247,145.286,282.916,129.646z"/>
<path fill="none" stroke="#0070E3" stroke-width="40" stroke-miterlimit="10" d="M-22.396,482.5"/>
<path fill="#0070E3" stroke="#0070E3" stroke-width="40" stroke-miterlimit="10" d="M98.5,228"/>
<g>
	<g>
		<path fill="none" stroke="#0070E3" stroke-width="40" stroke-miterlimit="10" d="M247.777,183.25"/>
		<path fill="none" stroke="#0070E3" stroke-width="40" stroke-miterlimit="10" d="M190.39,147.123"/>
	</g>
	<g>
		<g>
			<path fill="#4E5962" stroke="#DDDDDD" stroke-width="40" stroke-miterlimit="10" d="M231.931,146.002
				c80.764-1.12-40.548,0-40.548,0"/>
		</g>
		<path fill="#4E5962" stroke="#DDDDDD" stroke-width="40" stroke-miterlimit="10" d="M204.575,145.753
			c-80.764,1.12,40.548,0,40.548,0"/>
	</g>
	<g>
		<g>
			<path fill="#4E5962" stroke="#4E5962" stroke-width="36" stroke-miterlimit="10" d="M231.468,145.376
				c80.764-1.12-40.548,0-40.548,0"/>
		</g>
		<path fill="#4E5962" stroke="#4E5962" stroke-width="36" stroke-miterlimit="10" d="M204.112,145.127
			c-80.765,1.12,40.547,0,40.547,0"/>
	</g>
</g>
<g>
	<g>
		<path fill="none" stroke="#0070E3" stroke-width="40" stroke-miterlimit="10" d="M222.814,225.75"/>
		<path fill="none" stroke="#0070E3" stroke-width="40" stroke-miterlimit="10" d="M147.901,189.623"/>
	</g>
	<g>
		<g>
			<path fill="#4E5962" stroke="#DDDDDD" stroke-width="40" stroke-miterlimit="10" d="M202.128,188.502
				c105.429-1.12-52.931,0-52.931,0"/>
		</g>
		<path fill="#4E5962" stroke="#DDDDDD" stroke-width="40" stroke-miterlimit="10" d="M166.418,188.253
			c-105.429,1.12,52.931,0,52.931,0"/>
	</g>
	<g>
		<g>
			<path fill="#4E5962" stroke="#1FA1D0" stroke-width="36" stroke-miterlimit="10" d="M201.524,187.876
				c105.429-1.12-52.931,0-52.931,0"/>
		</g>
		<path fill="#4E5962" stroke="#1FA1D0" stroke-width="36" stroke-miterlimit="10" d="M165.814,187.627
			c-105.429,1.12,52.931,0,52.931,0"/>
	</g>
</g>
<g>
	<g>
		<path fill="none" stroke="#0070E3" stroke-width="40" stroke-miterlimit="10" d="M191.203,274.686"/>
		<path fill="none" stroke="#0070E3" stroke-width="40" stroke-miterlimit="10" d="M120.573,238.559"/>
	</g>
	<g>
		<g>
			<path fill="#4E5962" stroke="#DDDDDD" stroke-width="40" stroke-miterlimit="10" d="M171.699,237.438
				c99.399-1.12-49.903,0-49.903,0"/>
		</g>
		<path fill="#4E5962" stroke="#DDDDDD" stroke-width="40" stroke-miterlimit="10" d="M138.031,237.189
			c-99.4,1.12,49.904,0,49.904,0"/>
	</g>
	<g>
		<g>
			<path fill="#4E5962" stroke="#1FA1D0" stroke-width="36" stroke-miterlimit="10" d="M171.129,236.812
				c99.4-1.12-49.903,0-49.903,0"/>
		</g>
		<path fill="#4E5962" stroke="#1FA1D0" stroke-width="36" stroke-miterlimit="10" d="M137.461,236.563
			c-99.399,1.12,49.903,0,49.903,0"/>
	</g>
</g>
<text transform="matrix(1 0 0 1 126.8877 404.585)"><tspan x="0" y="0" fill="#FFFFFF" font-family="'Aldrich'" font-size="150">IC</tspan><tspan x="153.003" y="0" fill="#FFFFFF" font-family="'Aldrich'" font-size="192">P</tspan></text>
</svg>
