<?xml version="1.0" encoding="utf-8"?>
<!-- Generator: Adobe Illustrator 16.0.0, SVG Export Plug-In . SVG Version: 6.00 Build 0)  -->
<!DOCTYPE svg PUBLIC "-//W3C//DTD SVG 1.1//EN" "http://www.w3.org/Graphics/SVG/1.1/DTD/svg11.dtd">
<svg version="1.1" id="Capa_1" xmlns="http://www.w3.org/2000/svg" xmlns:xlink="http://www.w3.org/1999/xlink" x="0px" y="0px"
	 width="512px" height="512px" viewBox="0 0 512 512" enable-background="new 0 0 512 512" xml:space="preserve">
<circle display="none" fill="#FFFFFF" stroke="#000000" stroke-miterlimit="10" cx="260.5" cy="275.5" r="175.5"/>
<g>
	<path fill="#0070E3" d="M292.86,134.897c1.42,7.231,2.171,14.663,2.171,22.247c0,72.497-67.631,131.267-151.061,131.267
		c-23.894,0-46.486-4.829-66.57-13.411c-3.135,13.515-4.793,27.593-4.793,42.061c0,102.415,83.024,185.439,185.44,185.439
		c102.415,0,185.439-83.024,185.439-185.439C443.487,226.546,378.633,151.191,292.86,134.897z"/>
	<g>
		<path fill="none" stroke="#0070E3" stroke-width="40" stroke-miterlimit="10" d="M95.006,238.404c0,0,38.25-3.354,50.908-5.225
			c3.266-0.482,6.246-0.403,11.079-1.547c5.25-1.242,12.353-3.749,15.627-5.209c9.17-4.091,33.337-22.399,33.337-22.399"/>
		<ellipse fill="#0070E3" cx="100.736" cy="237.363" rx="21.356" ry="20.836"/>
		<ellipse fill="#0070E3" cx="198.749" cy="208.758" rx="21.357" ry="21.443"/>
	</g>
	<g>
		<path fill="none" stroke="#0070E3" stroke-width="40" stroke-miterlimit="10" d="M143.45,165.479c0,0,16.069-2.908,30.257-6.651
			c6.519-1.721,12.64-5.262,16.624-5.85c3.266-0.482,12.356-5.107,17.19-6.251c5.25-1.242,19.645-12.604,22.919-14.064
			c9.169-4.091,34.379-36.984,34.379-36.984"/>
		<ellipse fill="#0070E3" cx="143.45" cy="165.479" rx="21.357" ry="20.836"/>
		<ellipse fill="#0070E3" cx="267.944" cy="91.511" rx="21.357" ry="20.836"/>
	</g>
	<g>
		<path fill="none" stroke="#0070E3" stroke-width="40" stroke-miterlimit="10" d="M177.308,77.968c0,0,10.995-2.922,21.972-7.293
			c4.949-1.971,9.897-5.685,13.83-6.266c3.266-0.483,23.956-17.072,28.79-18.216c5.25-1.242-3.275,1.46,0,0
			c9.169-4.091,23.961-23.44,23.961-23.44"/>
		<ellipse fill="#0070E3" cx="177.308" cy="77.968" rx="21.357" ry="20.836"/>
		<ellipse fill="#0070E3" cx="263.777" cy="24.836" rx="21.357" ry="20.836"/>
	</g>
	<text transform="matrix(1 0 0 1 143.0269 411.4316)" fill="#FFFFFF" font-family="'TimesNewRomanPSMT'" font-size="156.2696">ICS</text>
</g>
</svg>
